0
SECTION
2
HEADER
9
$INSUNITS
70
4
9
$ACADVER
1
AC1014
9
$HANDSEED
5
FFFF
0
ENDSEC
0
SECTION
2
TABLES
0
TABLE
2
VPORT
5
8
100
AcDbSymbolTable
0
ENDTAB
0
TABLE
2
LTYPE
5
5
100
AcDbSymbolTable
0
LTYPE
5
14
100
AcDbSymbolTableRecord
100
AcDbLinetypeTableRecord
2
BYBLOCK
70
0
0
LTYPE
5
15
100
AcDbSymbolTableRecord
100
AcDbLinetypeTableRecord
2
BYLAYER
70
0
0
ENDTAB
0
TABLE
2
LAYER
5
2
100
AcDbSymbolTable
70
2
0
LAYER
5
50
100
AcDbSymbolTableRecord
100
AcDbLayerTableRecord
2
0
70
0
6
CONTINUOUS
0
ENDTAB
0
TABLE
2
STYLE
5
3
100
AcDbSymbolTable
70
1
0
STYLE
5
11
100
AcDbSymbolTableRecord
100
AcDbTextStyleTableRecord
2
STANDARD
70
0
0
ENDTAB
0
TABLE
2
VIEW
5
6
100
AcDbSymbolTable
70
0
0
ENDTAB
0
TABLE
2
UCS
5
7
100
AcDbSymbolTable
70
0
0
ENDTAB
0
TABLE
2
APPID
5
9
100
AcDbSymbolTable
70
2
0
APPID
5
12
100
AcDbSymbolTableRecord
100
AcDbRegAppTableRecord
2
ACAD
70
0
0
ENDTAB
0
TABLE
2
DIMSTYLE
5
A
100
AcDbSymbolTable
70
1
0
ENDTAB
0
TABLE
2
BLOCK_RECORD
5
1
100
AcDbSymbolTable
70
1
0
BLOCK_RECORD
5
1F
100
AcDbSymbolTableRecord
100
AcDbBlockTableRecord
2
*MODEL_SPACE
0
BLOCK_RECORD
5
1B
100
AcDbSymbolTableRecord
100
AcDbBlockTableRecord
2
*PAPER_SPACE
0
ENDTAB
0
ENDSEC
0
SECTION
2
BLOCKS
0
BLOCK
5
20
100
AcDbEntity
100
AcDbBlockBegin
2
*MODEL_SPACE
0
ENDBLK
5
21
100
AcDbEntity
100
AcDbBlockEnd
0
BLOCK
5
1C
100
AcDbEntity
100
AcDbBlockBegin
2
*PAPER_SPACE
0
ENDBLK
5
1D
100
AcDbEntity
100
AcDbBlockEnd
0
ENDSEC
0
SECTION
2
ENTITIES
0
CIRCLE
5
100
100
AcDbEntity
8
0
100
AcDbCircle
10
19.99999999999989
20
-110.00000000000014
30
0
40
1.3500000000000045
0
CIRCLE
5
101
100
AcDbEntity
8
0
100
AcDbCircle
10
-32.099950267378084
20
-115.10050805289252
30
0
40
1.3500000000000023
0
CIRCLE
5
102
100
AcDbEntity
8
0
100
AcDbCircle
10
-157.99999999999983
20
-8.001597455323207
30
0
40
1.0999999999999943
0
CIRCLE
5
103
100
AcDbEntity
8
0
100
AcDbCircle
10
-142
20
-8.001597455323191
30
0
40
1.0999999999999943
0
CIRCLE
5
104
100
AcDbEntity
8
0
100
AcDbCircle
10
-141.99999999999969
20
7.9984025446768108
30
0
40
1.0999999999999943
0
CIRCLE
5
105
100
AcDbEntity
8
0
100
AcDbCircle
10
-157.99999999999969
20
7.9984025446767948
30
0
40
1.0999999999999943
0
CIRCLE
5
106
100
AcDbEntity
8
0
100
AcDbCircle
10
157.99999999998172
20
8.0000000000586962
30
0
40
1.0999999999999943
0
CIRCLE
5
107
100
AcDbEntity
8
0
100
AcDbCircle
10
142.00000000000412
20
8.0000000000586962
30
0
40
1.0999999999999943
0
CIRCLE
5
108
100
AcDbEntity
8
0
100
AcDbCircle
10
141.99999999999292
20
-7.9999999999413056
30
0
40
1.0999999999999943
0
CIRCLE
5
109
100
AcDbEntity
8
0
100
AcDbCircle
10
157.99999999997053
20
-7.9999999997960636
30
0
40
1.0999999999999943
0
CIRCLE
5
110
100
AcDbEntity
8
0
100
AcDbCircle
10
150
20
6.6312592802357567e-11
30
0
40
8.0499999999999954
0
CIRCLE
5
111
100
AcDbEntity
8
0
100
AcDbCircle
10
-150
20
3.8621552614202667e-13
30
0
40
8.0499999999999954
0
CIRCLE
5
112
100
AcDbEntity
8
0
100
AcDbCircle
10
-55.400000000000091
20
-101.89999999999999
30
0
40
1.3499999999999979
0
CIRCLE
5
113
100
AcDbEntity
8
0
100
AcDbCircle
10
-55.400000000000006
20
-65.000000000000057
30
0
40
1.3499999999999979
0
CIRCLE
5
114
100
AcDbEntity
8
0
100
AcDbCircle
10
55.40000000000019
20
-65.000000000000455
30
0
40
1.3499999999999979
0
CIRCLE
5
115
100
AcDbEntity
8
0
100
AcDbCircle
10
55.400000000005356
20
65.000000000000185
30
0
40
1.3499999999999979
0
CIRCLE
5
116
100
AcDbEntity
8
0
100
AcDbCircle
10
-55.399999999994726
20
101.89999999999998
30
0
40
1.3499999999999979
0
CIRCLE
5
117
100
AcDbEntity
8
0
100
AcDbCircle
10
-55.399999999994677
20
64.999999999999943
30
0
40
1.3499999999999979
0
CIRCLE
5
118
100
AcDbEntity
8
0
100
AcDbCircle
10
18.499999999999911
20
-101.90000000000033
30
0
40
1.3500000000000001
0
CIRCLE
5
119
100
AcDbEntity
8
0
100
AcDbCircle
10
-18.500000000000092
20
-101.90000000000009
30
0
40
1.3500000000000001
0
CIRCLE
5
120
100
AcDbEntity
8
0
100
AcDbCircle
10
-18.5
20
-65.000000000000071
30
0
40
1.3500000000000001
0
CIRCLE
5
121
100
AcDbEntity
8
0
100
AcDbCircle
10
18.500000000000185
20
-65.000000000000327
30
0
40
1.3500000000000001
0
CIRCLE
5
122
100
AcDbEntity
8
0
100
AcDbCircle
10
-18.499999999994689
20
65
30
0
40
1.3500000000000001
0
CIRCLE
5
123
100
AcDbEntity
8
0
100
AcDbCircle
10
-18.499999999994721
20
101.89999999999999
30
0
40
1.3500000000000001
0
CIRCLE
5
124
100
AcDbEntity
8
0
100
AcDbCircle
10
18.500000000005279
20
101.89999999999999
30
0
40
1.3500000000000001
0
CIRCLE
5
125
100
AcDbEntity
8
0
100
AcDbCircle
10
18.50000000000535
20
65
30
0
40
1.3500000000000001
0
CIRCLE
5
126
100
AcDbEntity
8
0
100
AcDbCircle
10
-14.488887394336006
20
140.11771432346217
30
0
40
1.5000000000000036
0
CIRCLE
5
127
100
AcDbEntity
8
0
100
AcDbCircle
10
-9.8994949366116565
20
134.10050506338831
30
0
40
1.5000000000000022
0
CIRCLE
5
128
100
AcDbEntity
8
0
100
AcDbCircle
10
-3.6234666314352943
20
157.52296156804695
30
0
40
1.4999999999999996
0
CIRCLE
5
129
100
AcDbEntity
8
0
100
AcDbCircle
10
3.8822856765378115
20
158.48888739433602
30
0
40
1.5000000000000004
0
CIRCLE
5
130
100
AcDbEntity
8
0
100
AcDbCircle
10
10.606601717798219
20
133.39339828220179
30
0
40
1.5000000000000047
0
CIRCLE
5
131
100
AcDbEntity
8
0
100
AcDbCircle
10
2.311115933264683e-31
20
144
30
0
40
10
0
CIRCLE
5
132
100
AcDbEntity
8
0
100
AcDbCircle
10
0
20
0
30
0
40
6.5
0
CIRCLE
5
133
100
AcDbEntity
8
0
100
AcDbCircle
10
-141.99999999999952
20
48.000000000000526
30
0
40
2.1000000000000085
0
CIRCLE
5
134
100
AcDbEntity
8
0
100
AcDbCircle
10
-142.00000000000213
20
-16.000000000000153
30
0
40
2.1000000000000085
0
CIRCLE
5
135
100
AcDbEntity
8
0
100
AcDbCircle
10
-141.99999999999991
20
16.000000000000522
30
0
40
2.1000000000000085
0
CIRCLE
5
136
100
AcDbEntity
8
0
100
AcDbCircle
10
-142.00000000000225
20
-48.000000000000156
30
0
40
2.1000000000000085
0
CIRCLE
5
137
100
AcDbEntity
8
0
100
AcDbCircle
10
142.0000000000106
20
-47.999999999937238
30
0
40
2.1000000000000085
0
CIRCLE
5
138
100
AcDbEntity
8
0
100
AcDbCircle
10
141.99999999999645
20
-15.999999999937231
30
0
40
2.1000000000000085
0
CIRCLE
5
139
100
AcDbEntity
8
0
100
AcDbCircle
10
141.99999999997914
20
48.000000000073662
30
0
40
2.1000000000000085
0
CIRCLE
5
140
100
AcDbEntity
8
0
100
AcDbCircle
10
141.99999999999343
20
16.000000000073669
30
0
40
2.1000000000000085
0
CIRCLE
5
141
100
AcDbEntity
8
0
100
AcDbCircle
10
55.400000000005285
20
101.90000000000009
30
0
40
1.3499999999999979
0
CIRCLE
5
142
100
AcDbEntity
8
0
100
AcDbCircle
10
55.399999999999913
20
-101.90000000000032
30
0
40
1.3499999999999979
0
CIRCLE
5
143
100
AcDbEntity
8
0
100
AcDbCircle
10
20.784609690826542
20
155.99999999999997
30
0
40
2.6500000000000012
0
CIRCLE
5
144
100
AcDbEntity
8
0
100
AcDbCircle
10
-32.099950268816279
20
-143.00050805289254
30
0
40
1.3499999999999979
0
CIRCLE
5
145
100
AcDbEntity
8
0
100
AcDbCircle
10
112.85424227737293
20
78.064588642994863
30
0
40
1.5000000000000036
0
CIRCLE
5
146
100
AcDbEntity
8
0
100
AcDbCircle
10
-83.792153570605862
20
107.12667734976192
30
0
40
1.5000000000000036
0
CIRCLE
5
147
100
AcDbEntity
8
0
100
AcDbCircle
10
13.522961568046952
20
140.37653336856468
30
0
40
1.4999999999999969
0
CIRCLE
5
148
100
AcDbEntity
8
0
100
AcDbCircle
10
18.700049730400192
20
-158.20050805551119
30
0
40
1.3500000000000001
0
LWPOLYLINE
5
149
100
AcDbEntity
8
0
100
AcDbPolyline
90
4
70
1
43
0.0
10
130.00000000000023
20
6.2500000000130012
42
-0.99999999999999989
10
129.99999999999994
20
-6.25
10
24.000000000000004
20
-6.25
42
-0.99999999999999989
10
24.000000000000004
20
6.25
0
CIRCLE
5
150
100
AcDbEntity
8
0
100
AcDbCircle
10
107.12667734976191
20
83.79215357060589
30
0
40
1.5000000000000036
0
CIRCLE
5
151
100
AcDbEntity
8
0
100
AcDbCircle
10
83.792153570605848
20
-107.12667734976195
30
0
40
1.5000000000000036
0
CIRCLE
5
152
100
AcDbEntity
8
0
100
AcDbCircle
10
-78.064588642994835
20
112.85424227737295
30
0
40
1.5000000000000036
0
CIRCLE
5
153
100
AcDbEntity
8
0
100
AcDbCircle
10
-107.12667734976192
20
-83.792153570605862
30
0
40
1.5000000000000036
0
CIRCLE
5
154
100
AcDbEntity
8
0
100
AcDbCircle
10
78.064588642994806
20
-112.85424227737298
30
0
40
1.5000000000000036
0
ARC
5
155
100
AcDbEntity
8
0
100
AcDbCircle
10
-129.99270137267882
20
0.12313330650498389
30
0
40
6.2499999999999956
100
AcDbArc
50
89.936481385393705
51
269.93648446371833
0
LINE
5
156
100
AcDbEntity
8
0
100
AcDbLine
10
-129.98577256809068
20
6.3731294658371578
30
0
11
-23.985837705817161
21
6.255616940021369
31
0
0
ARC
5
157
100
AcDbEntity
8
0
100
AcDbCircle
10
-23.985837705816579
20
0.0056169400213607057
30
0
40
6.2500000000000036
100
AcDbArc
50
-90.0184860628178
51
90.000000000005343
0
LINE
5
158
100
AcDbEntity
8
0
100
AcDbLine
10
-23.987854222418473
20
-6.2443827346714986
30
0
11
-129.99962983702724
21
-6.1268628532043756
31
0
0
CIRCLE
5
159
100
AcDbEntity
8
0
100
AcDbCircle
10
-112.85424227737295
20
-78.064588642994821
30
0
40
1.4999999999999858
0
LWPOLYLINE
5
160
100
AcDbEntity
8
0
100
AcDbPolyline
90
12
70
1
43
0.0
10
78.09996230551657
20
145.34578042680459
10
111.72287137550043
20
111.72287137550036
10
145.34578042680462
20
78.099962305516499
42
-0.25165466144926885
10
145.34578042680451
20
-78.099962305516755
10
111.72287137550028
20
-111.72287137550057
10
78.099962305516357
20
-145.34578042680477
42
-0.25165466144926824
10
-78.099962305516627
20
-145.34578042680462
10
-111.72287137550042
20
-111.72287137550036
10
-145.34578042680465
20
-78.099962305516556
42
-0.25165466144926835
10
-145.34578042680468
20
78.099962305516499
10
-111.72287137550045
20
111.72287137550029
10
-78.099962305516698
20
145.34578042680451
42
-0.25165466144926885
0
ENDSEC
0
SECTION
2
OBJECTS
0
DICTIONARY
5
C
100
AcDbDictionary
3
ACAD_GROUP
350
D
3
ACAD_MLINESTYLE
350
17
0
DICTIONARY
5
D
100
AcDbDictionary
0
DICTIONARY
5
1A
330
C
100
AcDbDictionary
0
DICTIONARY
5
17
100
AcDbDictionary
0
ENDSEC
0
EOF
