0
SECTION
2
HEADER
9
$INSUNITS
70
4
9
$ACADVER
1
AC1014
9
$HANDSEED
5
FFFF
0
ENDSEC
0
SECTION
2
TABLES
0
TABLE
2
VPORT
5
8
100
AcDbSymbolTable
0
ENDTAB
0
TABLE
2
LTYPE
5
5
100
AcDbSymbolTable
0
LTYPE
5
14
100
AcDbSymbolTableRecord
100
AcDbLinetypeTableRecord
2
BYBLOCK
70
0
0
LTYPE
5
15
100
AcDbSymbolTableRecord
100
AcDbLinetypeTableRecord
2
BYLAYER
70
0
0
ENDTAB
0
TABLE
2
LAYER
5
2
100
AcDbSymbolTable
70
2
0
LAYER
5
50
100
AcDbSymbolTableRecord
100
AcDbLayerTableRecord
2
0
70
0
6
CONTINUOUS
0
ENDTAB
0
TABLE
2
STYLE
5
3
100
AcDbSymbolTable
70
1
0
STYLE
5
11
100
AcDbSymbolTableRecord
100
AcDbTextStyleTableRecord
2
STANDARD
70
0
0
ENDTAB
0
TABLE
2
VIEW
5
6
100
AcDbSymbolTable
70
0
0
ENDTAB
0
TABLE
2
UCS
5
7
100
AcDbSymbolTable
70
0
0
ENDTAB
0
TABLE
2
APPID
5
9
100
AcDbSymbolTable
70
2
0
APPID
5
12
100
AcDbSymbolTableRecord
100
AcDbRegAppTableRecord
2
ACAD
70
0
0
ENDTAB
0
TABLE
2
DIMSTYLE
5
A
100
AcDbSymbolTable
70
1
0
ENDTAB
0
TABLE
2
BLOCK_RECORD
5
1
100
AcDbSymbolTable
70
1
0
BLOCK_RECORD
5
1F
100
AcDbSymbolTableRecord
100
AcDbBlockTableRecord
2
*MODEL_SPACE
0
BLOCK_RECORD
5
1B
100
AcDbSymbolTableRecord
100
AcDbBlockTableRecord
2
*PAPER_SPACE
0
ENDTAB
0
ENDSEC
0
SECTION
2
BLOCKS
0
BLOCK
5
20
100
AcDbEntity
100
AcDbBlockBegin
2
*MODEL_SPACE
0
ENDBLK
5
21
100
AcDbEntity
100
AcDbBlockEnd
0
BLOCK
5
1C
100
AcDbEntity
100
AcDbBlockBegin
2
*PAPER_SPACE
0
ENDBLK
5
1D
100
AcDbEntity
100
AcDbBlockEnd
0
ENDSEC
0
SECTION
2
ENTITIES
0
LWPOLYLINE
5
100
100
AcDbEntity
8
0
100
AcDbPolyline
90
4
70
1
43
0.0
10
13.499999999999233
20
92.499999046326607
10
13.499999999999233
20
102.49999904632661
42
0.99999999999999989
10
-13.500000000000725
20
102.49999904632661
10
-13.500000000000759
20
92.499999046326607
42
0.99999999999999989
0
LWPOLYLINE
5
101
100
AcDbEntity
8
0
100
AcDbPolyline
90
4
70
1
43
0.0
10
27.999999999999261
20
92.499999046326607
10
27.999999999999261
20
102.49999904632661
42
0.99999999999999989
10
23.999999999999275
20
102.49999904632661
10
23.999999999999243
20
92.499999046326607
42
0.99999999999999989
0
LWPOLYLINE
5
102
100
AcDbEntity
8
0
100
AcDbPolyline
90
4
70
1
43
0.0
10
-28.000000000000753
20
102.49999904632661
10
-28.000000000000753
20
92.499999046326607
42
0.99999999999999989
10
-24.000000000000767
20
92.499999046326607
10
-24.000000000000753
20
102.49999904632661
42
0.99999999999999989
0
LWPOLYLINE
5
103
100
AcDbEntity
8
0
100
AcDbPolyline
90
8
70
1
43
0.0
10
5.6755315097300949
20
161.17241324429656
42
-0.22731307456528771
10
-1.3788034559832467
20
159.11257387350014
42
-1.0157490003665901
10
-6.5743215440196279
20
162.11220764020763
42
-0.2273130745652891
10
-8.3176158040498347
20
169.25136061271846
42
-1.6733200530685373
10
-5.6755315097315702
20
173.82758484835665
42
-0.22731307456528782
10
1.3788034559792797
20
175.88742421915444
42
-1.0157490003668952
10
6.5743215440181579
20
172.8877904524455
42
-0.22731307456528804
10
8.3176158040483585
20
165.74863747993621
42
-1.6733200530677761
0
ARC
5
104
100
AcDbEntity
8
0
100
AcDbCircle
10
-4.7500000000010569
20
333.22724133595204
30
0
40
3.0000000000000004
210
0
220
0
230
1
100
AcDbArc
50
0
51
180
0
ARC
5
105
100
AcDbEntity
8
0
100
AcDbCircle
10
-9.9253727795780498e-13
20
324.99999999999989
30
-4.4408920985006262e-15
40
5.5000000000000115
210
0
220
-0
230
1
100
AcDbArc
50
44.420789005786467
51
110.80341154520377
0
LINE
5
106
100
AcDbEntity
8
0
100
AcDbLine
10
3.9282032302745939
20
328.84957392209208
30
-4.4408920985006262e-15
11
3.9282032302746472
21
329.00000000000006
31
0
0
ARC
5
107
100
AcDbEntity
8
0
100
AcDbCircle
10
6.9282032302746117
20
329.00000000000006
30
0
40
3.0000000000000004
210
0
220
0
230
1
100
AcDbArc
50
0
51
180
0
ARC
5
108
100
AcDbEntity
8
0
100
AcDbCircle
10
4.7499999999989431
20
316.77275866404807
30
0
40
3.0000000000000004
210
0
220
0
230
1
100
AcDbArc
50
0
51
95.890463886492299
0
ARC
5
109
100
AcDbEntity
8
0
100
AcDbCircle
10
4.7499999999989431
20
316.77275866404807
30
0
40
3.0000000000000009
210
0
220
0
230
1
100
AcDbArc
50
158.78068744925321
51
180
0
ARC
5
110
100
AcDbEntity
8
0
100
AcDbCircle
10
-6.9282032302762815
20
320.99999999999989
30
0
40
3.0000000000000036
210
0
220
-0
230
1
100
AcDbArc
50
61.571106515118792
51
180
0
ARC
5
111
100
AcDbEntity
8
0
100
AcDbCircle
10
-9.9253727795780498e-13
20
324.99999999999989
30
-4.4408920985006262e-15
40
5.4999999999999982
210
0
220
0
230
1
100
AcDbArc
50
143.86773979053956
51
180
0
CIRCLE
5
112
100
AcDbEntity
8
0
100
AcDbCircle
10
0
20
0
30
0
40
490
210
0
220
0
230
1
0
CIRCLE
5
113
100
AcDbEntity
8
0
100
AcDbCircle
10
281.45825622994261
20
-162.50000000000003
30
0
40
10
210
0
220
0
230
1
0
CIRCLE
5
114
100
AcDbEntity
8
0
100
AcDbCircle
10
8.7500000000000195
20
-15.1554445662278
30
0
40
2.7000000000000037
210
0
220
0
230
1
0
CIRCLE
5
115
100
AcDbEntity
8
0
100
AcDbCircle
10
-17.500000000000021
20
-1.1828876059358463e-13
30
0
40
2.7000000000000046
210
0
220
0
230
1
0
CIRCLE
5
116
100
AcDbEntity
8
0
100
AcDbCircle
10
8.7500000000000036
20
15.155444566227573
30
0
40
2.7000000000000046
210
0
220
0
230
1
0
CIRCLE
5
117
100
AcDbEntity
8
0
100
AcDbCircle
10
0
20
0
30
0
40
11.000000000000014
210
0
220
0
230
1
0
CIRCLE
5
118
100
AcDbEntity
8
0
100
AcDbCircle
10
-41.066579374951004
20
182.53342098503606
30
0
40
2.0000000000000018
210
0
220
0
230
1
0
CIRCLE
5
119
100
AcDbEntity
8
0
100
AcDbCircle
10
-84.566578734950966
20
182.53342098503344
30
0
40
1.9999999999999929
210
0
220
0
230
1
0
CIRCLE
5
120
100
AcDbEntity
8
0
100
AcDbCircle
10
-66.166579974951588
20
192.53342130503455
30
0
40
2.0000000000000018
210
0
220
0
230
1
0
CIRCLE
5
121
100
AcDbEntity
8
0
100
AcDbCircle
10
-42.566578914951606
20
192.53342130503597
30
0
40
2.0000000000000018
210
0
220
0
230
1
0
CIRCLE
5
122
100
AcDbEntity
8
0
100
AcDbCircle
10
-42.566578914954164
20
235.033420125036
30
0
40
2.0000000000000018
210
0
220
0
230
1
0
CIRCLE
5
123
100
AcDbEntity
8
0
100
AcDbCircle
10
-66.166579974954146
20
235.03342012503458
30
0
40
2.0000000000000018
210
0
220
0
230
1
0
CIRCLE
5
124
100
AcDbEntity
8
0
100
AcDbCircle
10
-42.566578914956494
20
273.53342186503602
30
0
40
2.0000000000000018
210
0
220
0
230
1
0
CIRCLE
5
125
100
AcDbEntity
8
0
100
AcDbCircle
10
-66.166579974956477
20
273.5334218650346
30
0
40
2.0000000000000018
210
0
220
0
230
1
0
CIRCLE
5
126
100
AcDbEntity
8
0
100
AcDbCircle
10
-41.06657937495919
20
318.03342176503611
30
0
40
2.0000000000000018
210
0
220
0
230
1
0
CIRCLE
5
127
100
AcDbEntity
8
0
100
AcDbCircle
10
-66.166579974958893
20
313.53342060503462
30
0
40
2.0000000000000018
210
0
220
0
230
1
0
CIRCLE
5
128
100
AcDbEntity
8
0
100
AcDbCircle
10
-84.566578734959137
20
318.03342176503355
30
0
40
1.9999999999999929
210
0
220
0
230
1
0
CIRCLE
5
129
100
AcDbEntity
8
0
100
AcDbCircle
10
26.124999981888244
20
274.68834869676493
30
0
40
2.0000000000000018
210
0
220
0
230
1
0
CIRCLE
5
130
100
AcDbEntity
8
0
100
AcDbCircle
10
3.8749999818865799
20
234.68834858500713
30
0
40
1.9999999999999996
210
0
220
0
230
1
0
CIRCLE
5
131
100
AcDbEntity
8
0
100
AcDbCircle
10
23.852388321840952
20
-167.70104436731594
30
4.4408920985006262e-15
40
2.0000000000000018
210
0
220
0
230
1
0
CIRCLE
5
132
100
AcDbEntity
8
0
100
AcDbCircle
10
-24.407611678159103
20
-166.43104436731534
30
8.8817841970012523e-15
40
2.0000000000000018
210
0
220
0
230
1
0
CIRCLE
5
133
100
AcDbEntity
8
0
100
AcDbCircle
10
-9.1676116781583907
20
-115.6310443673155
30
4.4408920985006262e-15
40
1.9999999999999996
210
0
220
0
230
1
0
CIRCLE
5
134
100
AcDbEntity
8
0
100
AcDbCircle
10
18.772388321841646
20
-115.63104436731587
30
4.4408920985006262e-15
40
2.0000000000000018
210
0
220
0
230
1
0
CIRCLE
5
135
100
AcDbEntity
8
0
100
AcDbCircle
10
-480
20
15.299999999999628
30
-4.4408920985006262e-15
40
2.5
210
0
220
0
230
1
0
CIRCLE
5
136
100
AcDbEntity
8
0
100
AcDbCircle
10
-480
20
-15.300000000000207
30
0
40
2.5
210
0
220
0
230
1
0
CIRCLE
5
137
100
AcDbEntity
8
0
100
AcDbCircle
10
480
20
-15.300000000000374
30
4.4408920985006262e-15
40
2.5
210
0
220
0
230
1
0
CIRCLE
5
138
100
AcDbEntity
8
0
100
AcDbCircle
10
480
20
15.299999999999795
30
0
40
2.5
210
0
220
0
230
1
0
CIRCLE
5
139
100
AcDbEntity
8
0
100
AcDbCircle
10
13.300000000000001
20
28.69999999999953
30
-4.4408920985006262e-15
40
2.5
210
0
220
0
230
1
0
CIRCLE
5
140
100
AcDbEntity
8
0
100
AcDbCircle
10
-13.300000000000001
20
28.69999999999953
30
-4.4408920985006262e-15
40
2.4999999999999978
210
0
220
0
230
1
0
CIRCLE
5
141
100
AcDbEntity
8
0
100
AcDbCircle
10
274.45825622994261
20
-150.37564434701792
30
0
40
1.9999999999999929
210
0
220
0
230
1
0
CIRCLE
5
142
100
AcDbEntity
8
0
100
AcDbCircle
10
268.46787517317603
20
-155.00000000000003
30
0
40
1.9999999999999929
210
0
220
0
230
1
0
CIRCLE
5
143
100
AcDbEntity
8
0
100
AcDbCircle
10
274.45825622994261
20
-174.62435565298219
30
0
40
1.9999999999999929
210
0
220
0
230
1
0
CIRCLE
5
144
100
AcDbEntity
8
0
100
AcDbCircle
10
281.45825622994261
20
-177.50000000000006
30
0
40
1.9999999999999929
210
0
220
0
230
1
0
CIRCLE
5
145
100
AcDbEntity
8
0
100
AcDbCircle
10
295.45825622994261
20
-162.50000000000006
30
0
40
1.9999999999999929
210
0
220
0
230
1
0
CIRCLE
5
146
100
AcDbEntity
8
0
100
AcDbCircle
10
294.44863728670919
20
-155.00000000000003
30
0
40
2.0000000000000284
210
0
220
0
230
1
0
CIRCLE
5
147
100
AcDbEntity
8
0
100
AcDbCircle
10
3.5202880865932243e-15
20
43.699999999999577
30
0
40
2.0000000000000004
210
0
220
0
230
1
0
CIRCLE
5
148
100
AcDbEntity
8
0
100
AcDbCircle
10
-463.99999999999977
20
9.5367473745975299e-07
30
0
40
2.0000000000000284
210
0
220
0
230
1
0
CIRCLE
5
149
100
AcDbEntity
8
0
100
AcDbCircle
10
464
20
-9.5367552299663316e-07
30
0
40
2.0000000000000284
210
0
220
0
230
1
0
CIRCLE
5
150
100
AcDbEntity
8
0
100
AcDbCircle
10
-463.99999999999977
20
35.000000953674743
30
0
40
2.0000000000000284
210
0
220
0
230
1
0
CIRCLE
5
151
100
AcDbEntity
8
0
100
AcDbCircle
10
-463.99999999999977
20
-34.999999046325257
30
0
40
1.9999999999999574
210
0
220
0
230
1
0
CIRCLE
5
152
100
AcDbEntity
8
0
100
AcDbCircle
10
464
20
34.999999046324476
30
0
40
2.0000000000000284
210
0
220
0
230
1
0
CIRCLE
5
153
100
AcDbEntity
8
0
100
AcDbCircle
10
464
20
-35.000000953675524
30
0
40
1.9999999999999574
210
0
220
0
230
1
0
CIRCLE
5
154
100
AcDbEntity
8
0
100
AcDbCircle
10
-0.28901550902635653
20
-294.71098449097371
30
0
40
3.9999999999999951
210
0
220
0
230
1
0
CIRCLE
5
155
100
AcDbEntity
8
0
100
AcDbCircle
10
221.09645655651815
20
149.86616048430122
30
4.4408920985006262e-15
40
1.9999999999999929
210
0
220
0
230
1
0
CIRCLE
5
156
100
AcDbEntity
8
0
100
AcDbCircle
10
184.35465623305717
20
149.86616048429423
30
0
40
1.9999999999999929
210
0
220
0
230
1
0
CIRCLE
5
157
100
AcDbEntity
8
0
100
AcDbCircle
10
184.35465622486305
20
112.48665961249556
30
4.4408920985006262e-15
40
1.9999999999999929
210
0
220
0
230
1
0
CIRCLE
5
158
100
AcDbEntity
8
0
100
AcDbCircle
10
221.09645654832406
20
112.48665961250256
30
4.4408920985006262e-15
40
1.9999999999999929
210
0
220
0
230
1
0
CIRCLE
5
159
100
AcDbEntity
8
0
100
AcDbCircle
10
-184.3546562248809
20
-112.48665961246019
30
4.4408920985006262e-15
40
1.9999999999999929
210
0
220
0
230
1
0
CIRCLE
5
160
100
AcDbEntity
8
0
100
AcDbCircle
10
-184.3546562330817
20
-149.8661604842587
30
0
40
1.9999999999999929
210
0
220
0
230
1
0
CIRCLE
5
161
100
AcDbEntity
8
0
100
AcDbCircle
10
-221.09645655628998
20
-112.48665961246058
30
4.4408920985006262e-15
40
1.9999999999999929
210
0
220
0
230
1
0
CIRCLE
5
162
100
AcDbEntity
8
0
100
AcDbCircle
10
-221.09645655654262
20
-149.86616048425907
30
4.4408920985006262e-15
40
1.9999999999999929
210
0
220
0
230
1
0
CIRCLE
5
163
100
AcDbEntity
8
0
100
AcDbCircle
10
275.41809127216032
20
-275.41809127216038
30
0
40
3.9999999999999858
210
0
220
0
230
1
0
CIRCLE
5
164
100
AcDbEntity
8
0
100
AcDbCircle
10
275.41809127216032
20
275.41809127216032
30
0
40
3.9999999999999858
210
0
220
0
230
1
0
CIRCLE
5
165
100
AcDbEntity
8
0
100
AcDbCircle
10
-275.41809127216027
20
275.41809127216021
30
0
40
3.9999999999999858
210
0
220
0
230
1
0
CIRCLE
5
166
100
AcDbEntity
8
0
100
AcDbCircle
10
-275.41809127216038
20
-275.41809127216032
30
0
40
3.9999999999999858
210
0
220
0
230
1
0
CIRCLE
5
167
100
AcDbEntity
8
0
100
AcDbCircle
10
69.999999999999559
20
-38.50000000000086
30
0
40
2.7500000000000036
210
-1.2325951644078315e-32
220
9.8607613152626301e-32
230
1
0
CIRCLE
5
168
100
AcDbEntity
8
0
100
AcDbCircle
10
69.999999999999559
20
-75.500000000000938
30
0
40
2.7500000000000036
210
0
220
9.8607613152626301e-32
230
1
0
CIRCLE
5
169
100
AcDbEntity
8
0
100
AcDbCircle
10
219.99999999999989
20
-38.500000000000831
30
0
40
2.7500000000000213
210
0
220
9.8607613152626301e-32
230
1
0
CIRCLE
5
170
100
AcDbEntity
8
0
100
AcDbCircle
10
219.99999999999989
20
-75.500000000000909
30
0
40
2.7500000000000213
210
-2.2410821171051299e-32
220
9.8607613152626301e-32
230
1
0
CIRCLE
5
171
100
AcDbEntity
8
0
100
AcDbCircle
10
370.00000000000023
20
-75.500000000000881
30
0
40
2.7499999999999858
210
-1.2325951644078394e-32
220
9.8607613152626301e-32
230
1
0
CIRCLE
5
172
100
AcDbEntity
8
0
100
AcDbCircle
10
370.00000000000023
20
-38.500000000000803
30
0
40
2.7499999999999858
210
0
220
9.8607613152626301e-32
230
1
0
CIRCLE
5
173
100
AcDbEntity
8
0
100
AcDbCircle
10
370.00000000000023
20
38.499999999998664
30
4.4408920985006262e-15
40
2.7499999999999858
210
0
220
-4.6222318665293572e-33
230
1
0
CIRCLE
5
174
100
AcDbEntity
8
0
100
AcDbCircle
10
370.00000000000023
20
75.499999999998721
30
4.4408920985006262e-15
40
2.7499999999999858
210
0
220
1.5407439555097854e-33
230
1
0
CIRCLE
5
175
100
AcDbEntity
8
0
100
AcDbCircle
10
219.99999999999989
20
38.499999999998636
30
0
40
2.7500000000000213
210
0
220
-4.6222318665293572e-33
230
1
0
CIRCLE
5
176
100
AcDbEntity
8
0
100
AcDbCircle
10
219.99999999999989
20
75.499999999998707
30
0
40
2.7500000000000213
210
0
220
1.5407439555097854e-33
230
1
0
CIRCLE
5
177
100
AcDbEntity
8
0
100
AcDbCircle
10
69.999999999999559
20
75.499999999998678
30
0
40
2.7500000000000036
210
0
220
1.5407439555097854e-33
230
1
0
CIRCLE
5
178
100
AcDbEntity
8
0
100
AcDbCircle
10
69.999999999999559
20
38.499999999998607
30
0
40
2.7500000000000036
210
0
220
-4.6222318665293572e-33
230
1
0
CIRCLE
5
179
100
AcDbEntity
8
0
100
AcDbCircle
10
-70.000000000000057
20
75.499999999998636
30
0
40
2.7500000000000036
210
4.7484750250560198e-64
220
-2.4440263261052087e-48
230
1
0
CIRCLE
5
180
100
AcDbEntity
8
0
100
AcDbCircle
10
-70.000000000000057
20
38.499999999998579
30
0
40
2.7500000000000036
210
8.9804894259096817e-49
220
-4.6222318665293544e-33
230
1
0
CIRCLE
5
181
100
AcDbEntity
8
0
100
AcDbCircle
10
-220.0000000000004
20
75.499999999998607
30
0
40
2.7500000000000213
210
4.7484750250559895e-64
220
-2.4440263261052087e-48
230
1
0
CIRCLE
5
182
100
AcDbEntity
8
0
100
AcDbCircle
10
-220.0000000000004
20
38.49999999999855
30
0
40
2.7500000000000213
210
8.9804894259096239e-49
220
-4.6222318665293544e-33
230
1
0
CIRCLE
5
183
100
AcDbEntity
8
0
100
AcDbCircle
10
-370.00000000000068
20
75.499999999998579
30
0
40
2.7499999999999858
210
4.7484750250560509e-64
220
-2.4440263261052087e-48
230
1
0
CIRCLE
5
184
100
AcDbEntity
8
0
100
AcDbCircle
10
-370.00000000000068
20
38.499999999998515
30
0
40
2.7499999999999858
210
8.9804894259097409e-49
220
-4.6222318665293544e-33
230
1
0
CIRCLE
5
185
100
AcDbEntity
8
0
100
AcDbCircle
10
-370.00000000000068
20
-38.500000000000988
30
0
40
2.7499999999999858
210
-7.7206467899952041e-63
220
3.9737945150264738e-47
230
1
0
CIRCLE
5
186
100
AcDbEntity
8
0
100
AcDbCircle
10
-370.00000000000068
20
-75.500000000001052
30
0
40
2.7499999999999858
210
-8.8429006702507993e-63
220
4.5514153329618095e-47
230
1
0
CIRCLE
5
187
100
AcDbEntity
8
0
100
AcDbCircle
10
-220.0000000000004
20
-75.500000000001023
30
0
40
2.7500000000000213
210
-8.8429006702506849e-63
220
4.5514153329618095e-47
230
1
0
CIRCLE
5
188
100
AcDbEntity
8
0
100
AcDbCircle
10
-220.0000000000004
20
-38.500000000000952
30
0
40
2.7500000000000213
210
-7.7206467899951047e-63
220
3.9737945150264738e-47
230
1
0
CIRCLE
5
189
100
AcDbEntity
8
0
100
AcDbCircle
10
-70.000000000000057
20
-38.500000000000931
30
0
40
2.7500000000000036
210
-7.7206467899951544e-63
220
3.9737945150264738e-47
230
1
0
CIRCLE
5
190
100
AcDbEntity
8
0
100
AcDbCircle
10
-70.000000000000057
20
-75.500000000000995
30
0
40
2.7500000000000036
210
-8.8429006702507421e-63
220
4.5514153329618095e-47
230
1
0
CIRCLE
5
191
100
AcDbEntity
8
0
100
AcDbCircle
10
325.02360799999713
20
95.049999862168718
30
0
40
2.0000000000000284
210
0
220
0
230
1
0
CIRCLE
5
192
100
AcDbEntity
8
0
100
AcDbCircle
10
316.49999979883142
20
95.049999862168463
30
0
40
1.9999999999999929
210
0
220
0
230
1
0
CIRCLE
5
193
100
AcDbEntity
8
0
100
AcDbCircle
10
-316.49999979883432
20
-95.059999862163878
30
0
40
1.9999999999999929
210
0
220
0
230
1
0
CIRCLE
5
194
100
AcDbEntity
8
0
100
AcDbCircle
10
-325.02360799999997
20
-95.059999862163878
30
0
40
1.9999999999999574
210
0
220
0
230
1
0
CIRCLE
5
195
100
AcDbEntity
8
0
100
AcDbCircle
10
13.081475451950396
20
180.5814744982776
30
0
40
2.0000000000000018
210
0
220
0
230
1
0
CIRCLE
5
196
100
AcDbEntity
8
0
100
AcDbCircle
10
-17.869627786348566
20
172.28815138072332
30
0
40
2.0000000000000018
210
0
220
0
230
1
0
CIRCLE
5
197
100
AcDbEntity
8
0
100
AcDbCircle
10
4.7881523343957113
20
149.63037125997874
30
4.4408920985006262e-15
40
2.0000000000000009
210
0
220
0
230
1
0
CIRCLE
5
198
100
AcDbEntity
8
0
100
AcDbCircle
10
4.7881523343955523
20
342.86962778634779
30
-4.4408920985006262e-15
40
2.0999999999999899
210
0
220
0
230
1
0
CIRCLE
5
199
100
AcDbEntity
8
0
100
AcDbCircle
10
-17.869627786348509
20
320.21184766560305
30
0
40
2.0999999999999952
210
0
220
0
230
1
0
CIRCLE
5
200
100
AcDbEntity
8
0
100
AcDbCircle
10
13.08147545195051
20
311.91852454804905
30
0
40
2.0999999999999996
210
0
220
0
230
1
0
CIRCLE
5
201
100
AcDbEntity
8
0
100
AcDbCircle
10
-4.7500000000010569
20
333.22724133595204
30
0
40
2.9999999999999902
210
0
220
0
230
1
0
CIRCLE
5
202
100
AcDbEntity
8
0
100
AcDbCircle
10
4.7499999999989431
20
316.77275866404807
30
0
40
2.9999999999999956
210
0
220
0
230
1
0
LWPOLYLINE
5
203
100
AcDbEntity
8
0
100
AcDbPolyline
90
4
70
1
43
0.0
10
3.9321838446543786
20
328.84550779635322
42
-4.1576092031094705
10
5.2963993644202256
20
326.48261720364582
42
-0.77621761505847864
10
-3.9321838446559667
20
321.15449220364542
42
-4.1576092031054461
10
-5.2963993644220277
20
323.51738279635515
42
-0.77621761505847919
0
LWPOLYLINE
5
204
100
AcDbEntity
8
0
100
AcDbPolyline
90
4
70
1
43
0.0
10
-288.12812921102039
20
-161.73205080756867
10
-294.19030703751139
20
-165.23205080756864
42
-0.99999999999999989
10
-296.19030703751156
20
-161.76794919243105
10
-290.12812921102045
20
-158.26794919243096
42
-0.99999999999999989
0
LWPOLYLINE
5
205
100
AcDbEntity
8
0
100
AcDbPolyline
90
4
70
1
43
0.0
10
-276.12812921102045
20
-173.73205080756864
10
-282.1903070375115
20
-177.23205080756867
42
-0.99999999999999989
10
-284.19030703751156
20
-173.76794919243093
10
-278.12812921102045
20
-170.2679491924309
42
-0.99999999999999989
0
LINE
5
206
100
AcDbEntity
8
0
100
AcDbLine
10
-270.1903070375115
20
-165.2320508075687
30
0
11
-264.12812921102045
21
-161.73205080756873
31
0
0
ARC
5
207
100
AcDbEntity
8
0
100
AcDbCircle
10
-265.12812921102045
20
-159.99999999999986
30
0
40
1.9999999999999813
210
0
220
0
230
1
100
AcDbArc
50
-59.999999999999879
51
119.99999999999834
0
LINE
5
208
100
AcDbEntity
8
0
100
AcDbLine
10
-266.12812921102039
20
-158.26794919243096
30
0
11
-272.1903070375115
21
-161.76794919243096
31
0
0
ARC
5
209
100
AcDbEntity
8
0
100
AcDbCircle
10
-271.1903070375115
20
-163.49999999999983
30
0
40
1.9999999999999813
210
0
220
0
230
1
100
AcDbArc
50
120.00000000000011
51
300.00000000000011
0
LINE
5
210
100
AcDbEntity
8
0
100
AcDbLine
10
-282.1903070375115
20
-153.23205080756873
30
0
11
-276.12812921102039
21
-149.73205080756873
31
0
0
ARC
5
211
100
AcDbEntity
8
0
100
AcDbCircle
10
-277.12812921102045
20
-147.99999999999983
30
0
40
2.0000000000000147
210
0
220
0
230
1
100
AcDbArc
50
-59.999999999998863
51
119.99999999999974
0
LINE
5
212
100
AcDbEntity
8
0
100
AcDbLine
10
-278.12812921102045
20
-146.26794919243093
30
0
11
-284.19030703751145
21
-149.7679491924309
31
0
0
ARC
5
213
100
AcDbEntity
8
0
100
AcDbCircle
10
-283.1903070375115
20
-151.49999999999983
30
0
40
2.0000000000000098
210
0
220
0
230
1
100
AcDbArc
50
119.99999999999791
51
299.99999999999972
0
LINE
5
214
100
AcDbEntity
8
0
100
AcDbLine
10
-281.6903070375115
20
-166.09807621135315
30
0
11
-275.62812921102045
21
-162.59807621135309
31
0
0
ARC
5
215
100
AcDbEntity
8
0
100
AcDbCircle
10
-277.12812921102045
20
-159.9999999999998
30
0
40
2.9999999999999831
210
0
220
0
230
1
100
AcDbArc
50
-59.999999999999723
51
120.00000000000028
0
LINE
5
216
100
AcDbEntity
8
0
100
AcDbLine
10
-278.62812921102045
20
-157.40192378864651
30
0
11
-284.6903070375115
21
-160.90192378864654
31
0
0
ARC
5
217
100
AcDbEntity
8
0
100
AcDbCircle
10
-283.1903070375115
20
-163.49999999999983
30
0
40
2.9999999999999987
210
0
220
0
230
1
100
AcDbArc
50
120.00000000000028
51
300.00000000000006
0
LWPOLYLINE
5
218
100
AcDbEntity
8
0
100
AcDbPolyline
90
6
70
1
43
0.0
10
-119.85726969589976
20
-270.89014246931617
42
-0.30221871982775939
10
-114.6715454033282
20
-221.31404630581477
42
-0.39345530987950006
10
-107.91472889314711
20
-220.43144458099451
10
-93.492307798023063
20
-230.72371160547053
42
-0.38330281824987922
10
-92.040689374241936
20
-237.24821007615509
10
-111.07264317387425
20
-271.02358408590254
42
-0.5945786030952499
0
LWPOLYLINE
5
219
100
AcDbEntity
8
0
100
AcDbPolyline
90
6
70
1
43
0.0
10
-100.8901424693158
20
-210.14273030410064
42
-0.30221871982775983
10
-51.314046305814401
20
-215.32845459667226
42
-0.39345530987949867
10
-50.43144458099416
20
-222.08527110685333
10
-60.723711605470179
20
-236.50769220197736
42
-0.38330281824987872
10
-67.248210076154749
20
-237.95931062575852
10
-101.0235840859022
20
-218.92735682612621
42
-0.59457860309525035
0
LWPOLYLINE
5
220
100
AcDbEntity
8
0
100
AcDbPolyline
90
6
70
1
43
0.0
10
-40.142730304100319
20
-229.10985753068462
42
-0.30221871982775972
10
-45.328454596671889
20
-278.68595369418603
42
-0.39345530987949978
10
-52.085271106852957
20
-279.56855541900626
10
-66.507692201977008
20
-269.27628839453024
42
-0.38330281824987966
10
-67.95931062575815
20
-262.75178992384565
10
-48.927356826125809
20
-228.97641591409823
42
-0.5945786030952499
0
LWPOLYLINE
5
221
100
AcDbEntity
8
0
100
AcDbPolyline
90
6
70
1
43
0.0
10
-59.109857530684273
20
-289.85726969590013
42
-0.30077498943878589
10
-108.50201116144933
20
-284.82291429149279
42
-0.39871153509907686
10
-109.367305353495
20
-277.99710057087447
10
-98.852785354464999
20
-263.65749831317288
42
-0.37961426462173448
10
-92.366032475747829
20
-262.25805833447754
10
-58.976415914097878
20
-281.07264317387455
42
-0.5945786030952499
0
LWPOLYLINE
5
222
100
AcDbEntity
8
0
100
AcDbPolyline
90
6
70
1
43
0.0
10
119.85726969589983
20
270.89014246931595
42
-0.30221871982775966
10
114.67154540332827
20
221.31404630581454
42
-0.39345530987949945
10
107.91472889314718
20
220.43144458099431
10
93.492307798023134
20
230.72371160547036
42
-0.38330281824987972
10
92.040689374242021
20
237.24821007615489
10
111.07264317387433
20
271.02358408590237
42
-0.59457860309524824
0
LWPOLYLINE
5
223
100
AcDbEntity
8
0
100
AcDbPolyline
90
6
70
1
43
0.0
10
100.89014246931586
20
210.14273030410041
42
-0.30221871982775983
10
51.314046305814472
20
215.32845459667209
42
-0.39345530987949939
10
50.431444580994231
20
222.0852711068531
10
60.723711605470243
20
236.50769220197716
42
-0.38330281824987916
10
67.24821007615482
20
237.95931062575832
10
101.02358408590227
20
218.92735682612596
42
-0.59457860309524924
0
LWPOLYLINE
5
224
100
AcDbEntity
8
0
100
AcDbPolyline
90
6
70
1
43
0.0
10
40.14273030410039
20
229.10985753068442
42
-0.30221871982775939
10
45.328454596671961
20
278.6859536941858
42
-0.39345530987950006
10
52.085271106853028
20
279.56855541900603
10
66.507692201977093
20
269.27628839453001
42
-0.38330281824987844
10
67.959310625758206
20
262.75178992384548
10
48.927356826125887
20
228.97641591409806
42
-0.59457860309524779
0
LWPOLYLINE
5
225
100
AcDbEntity
8
0
100
AcDbPolyline
90
6
70
1
43
0.0
10
59.109857530684344
20
289.8572696958999
42
-0.30077498943878589
10
108.50201116144942
20
284.82291429149257
42
-0.39871153509907686
10
109.36730535349508
20
277.99710057087424
10
98.852785354465055
20
263.65749831317265
42
-0.37961426462173448
10
92.3660324757479
20
262.25805833447731
10
58.976415914097956
20
281.07264317387438
42
-0.59457860309524924
0
CIRCLE
5
226
100
AcDbEntity
8
0
100
AcDbCircle
10
121.25000000000007
20
291.25000000000011
30
1.1102230246251565e-15
40
2.000000000000008
210
0
220
0
230
1
0
CIRCLE
5
227
100
AcDbEntity
8
0
100
AcDbCircle
10
38.750000000000142
20
291.25000000000011
30
1.1102230246251565e-15
40
1.9999999999999969
210
0
220
0
230
1
0
CIRCLE
5
228
100
AcDbEntity
8
0
100
AcDbCircle
10
38.750000000000142
20
208.75000000000023
30
0
40
2
210
0
220
0
230
1
0
CIRCLE
5
229
100
AcDbEntity
8
0
100
AcDbCircle
10
121.25000000000007
20
208.75000000000023
30
0
40
1.9999999999999925
210
0
220
0
230
1
0
CIRCLE
5
230
100
AcDbEntity
8
0
100
AcDbCircle
10
-38.750000000000064
20
-291.25000000000034
30
-1.1102230246251565e-15
40
2.0000000000000151
210
0
220
0
230
1
0
CIRCLE
5
231
100
AcDbEntity
8
0
100
AcDbCircle
10
-121.25
20
-291.25000000000034
30
-1.1102230246251565e-15
40
2.0000000000000067
210
0
220
0
230
1
0
CIRCLE
5
232
100
AcDbEntity
8
0
100
AcDbCircle
10
-121.25
20
-208.75000000000043
30
0
40
2.0000000000000089
210
0
220
0
230
1
0
CIRCLE
5
233
100
AcDbEntity
8
0
100
AcDbCircle
10
-38.750000000000078
20
-208.75000000000043
30
0
40
2.0000000000000004
210
0
220
0
230
1
0
ARC
5
234
100
AcDbEntity
8
0
100
AcDbCircle
10
-7.5679740252354638e-13
20
167.49999904632659
30
0
40
8.4999999999999893
210
0
220
0
230
1
100
AcDbArc
50
260.6646780584083
51
311.89053499035714
0
ARC
5
235
100
AcDbEntity
8
0
100
AcDbCircle
10
-7.5679740252354638e-13
20
167.49999904632659
30
0
40
8.4999999999999982
210
0
220
0
230
1
100
AcDbArc
50
-11.890534990360095
51
39.335321941588852
0
ARC
5
236
100
AcDbEntity
8
0
100
AcDbCircle
10
-7.5679740252354638e-13
20
167.49999904632659
30
0
40
8.4999999999999787
210
0
220
-0
230
1
100
AcDbArc
50
80.664678058408029
51
131.89053499035688
0
ARC
5
237
100
AcDbEntity
8
0
100
AcDbCircle
10
-7.5679740252354638e-13
20
167.49999904632659
30
0
40
8.5
210
0
220
0
230
1
100
AcDbArc
50
168.1094650096403
51
219.33532194158926
0
ENDSEC
0
SECTION
2
OBJECTS
0
DICTIONARY
5
C
100
AcDbDictionary
3
ACAD_GROUP
350
D
3
ACAD_MLINESTYLE
350
17
0
DICTIONARY
5
D
100
AcDbDictionary
0
DICTIONARY
5
1A
330
C
100
AcDbDictionary
0
DICTIONARY
5
17
100
AcDbDictionary
0
ENDSEC
0
EOF
